# xmcd
#
# Track frame offsets: 
#        150
#        12827
#        27974
#        45214
#        61811
#        73797
#        91203
#        101133
#        114041
#        128934
#        144011
#        161446
#        180754
#        191927
#        197933
#        228548
#        241930
#        274192
#
# Disc length: 3808 seconds
#
# Revision: 0
# Processed by: cddbd v1.5.2PL0 Copyright (c) Steve Scherf et al.
# Submitted via: ExactAudioCopy v0.99pb4
#
DISCID=e80ede12
DTITLE=Various Artist - Het Beste Uit 25 Jaar Funiculi Funicula - CD 4
DYEAR=2016
DGENRE=Chamber Music
TTITLE0=Luciano Pavarotti and Dame Joan Sutherland - Libiamo Ne'Lieti Ca
TTITLE0=lici (From 'La Traviata')
TTITLE1=Roberto Alagna - Mexico
TTITLE2=Il Divo - Come Primavera
TTITLE3=Manuel And The Music Of The Mountains - Mi Sono Innamorato Di 
TTITLE3=Te
TTITLE4=Dean Martin - From The Bottom Of My Heart
TTITLE5=Johnny Mathis - I'll Close My Eyes
TTITLE6=The City Of Prague Philharmonic Orchestra - Wednesday's Child 
TTITLE6=(From 'The Quiller Memorandum')
TTITLE7=Vince Hill - Roses Of Picardy
TTITLE8=Yannick Bovy - I've Got You Under My Skin
TTITLE9=Bert Kaempfert And His Orchestra - Strangers In The Night
TTITLE10=Rob De Nijs - Schrijf Me Niet
TTITLE11=Willem Vermandere - Voor Marie-Louise
TTITLE12=Sir James Galway - Pie In The Face Polka (From 'The Great Rac
TTITLE12=e')
TTITLE13=The Swingle Singers - Badinerie (From 'Orchestral Suite No. 2
TTITLE13=BWV 1067')
TTITLE14=London Promenade Orchestra - In A Persian Market
TTITLE15=José Carreras - Nessun Dorma (From 'Turandot')
TTITLE16=Wiener Philharmoniker - Walzer (From 'Ballsirenen')
TTITLE17=Nikolaus Harnoncourt - Tritsch-Tratsch Polka Op. 214
EXTD=
EXTT0=
EXTT1=
EXTT2=
EXTT3=
EXTT4=
EXTT5=
EXTT6=
EXTT7=
EXTT8=
EXTT9=
EXTT10=
EXTT11=
EXTT12=
EXTT13=
EXTT14=
EXTT15=
EXTT16=
EXTT17=
PLAYORDER=
